<?xml version="1.0" encoding="utf-8"?>
<!-- Generator: Adobe Illustrator 23.0.2, SVG Export Plug-In . SVG Version: 6.00 Build 0)  -->
<svg version="1.1" id="Layer_1" xmlns="http://www.w3.org/2000/svg" xmlns:xlink="http://www.w3.org/1999/xlink" x="0px" y="0px"
	 viewBox="0 0 22 22" style="enable-background:new 0 0 22 22;" xml:space="preserve">
<style type="text/css">
	.st0{fill-rule:evenodd;clip-rule:evenodd;}
</style>
<path class="st0" d="M18.8,18.8C16.7,20.9,13.8,22,11,22c-1.8,0-3.6-0.4-5.2-1.3C4.3,21.7,2.9,22,1.9,22c-0.4,0-0.7,0-0.9-0.1
	c-0.4-0.1-0.8-0.4-0.9-0.9c-0.1-0.4,0.2-0.9,0.6-1.1c0.8-0.4,1.4-1.2,1.8-2C-1.1,13.7-0.8,7.2,3.2,3.2C5.3,1.1,8.1,0,11,0
	c2.9,0,5.7,1.1,7.8,3.2C20.9,5.3,22,8.1,22,11C22,13.9,20.9,16.7,18.8,18.8z M17.9,4.1c-3.8-3.8-10-3.8-13.8,0
	c-3.6,3.6-3.8,9.5-0.4,13.3c0.1,0.1,0.1,0.2,0.2,0.4c0,0.1,0,0.3,0,0.4C3.5,19,2.9,20,1.9,20.7h0c0.8,0,2.1-0.2,3.3-1.2
	c0,0,0,0,0.1,0c0.2-0.2,0.5-0.2,0.8-0.1c3.8,2.2,8.7,1.6,11.8-1.5C21.7,14.1,21.7,7.9,17.9,4.1z M15,11.8c-0.4,0-0.8-0.3-0.8-0.8
	c0-0.4,0.3-0.8,0.8-0.8c0.4,0,0.8,0.3,0.8,0.8C15.7,11.4,15.4,11.8,15,11.8z M11,11.8c-0.4,0-0.8-0.3-0.8-0.8c0-0.4,0.3-0.8,0.8-0.8
	c0.4,0,0.8,0.3,0.8,0.8C11.8,11.4,11.4,11.8,11,11.8z M7,11.8c-0.4,0-0.8-0.3-0.8-0.8c0-0.4,0.3-0.8,0.8-0.8s0.8,0.3,0.8,0.8
	C7.8,11.4,7.4,11.8,7,11.8z"/>
</svg>
