<?xml version="1.0" encoding="utf-8"?>
<!-- Generator: Adobe Illustrator 23.0.2, SVG Export Plug-In . SVG Version: 6.00 Build 0)  -->
<svg version="1.1" id="Layer_1" xmlns="http://www.w3.org/2000/svg" xmlns:xlink="http://www.w3.org/1999/xlink" x="0px" y="0px"
	 viewBox="0 0 35.7 35.2" style="enable-background:new 0 0 35.7 35.2;" xml:space="preserve">
<style type="text/css">
	.st0{fill-rule:evenodd;clip-rule:evenodd;}
</style>
<path class="st0" d="M35.4,2.4L19.8,18l14.8,14.8c0.4,0.4,0.4,1,0,1.4l-0.4,0.4c-0.4,0.4-1,0.4-1.4,0L18,19.8L2.9,34.9
	c-0.4,0.4-1,0.4-1.4,0l-0.7-0.7c-0.4-0.4-0.4-1,0-1.4l15.1-15.1L0.3,2.1c-0.4-0.4-0.4-1,0-1.4l0.4-0.4c0.4-0.4,1-0.4,1.4,0
	l15.6,15.6L33.3,0.3c0.4-0.4,1-0.4,1.4,0L35.4,1C35.8,1.4,35.8,2,35.4,2.4z"/>
</svg>
