<?xml version="1.0" encoding="utf-8"?>
<!-- Generator: Adobe Illustrator 23.0.2, SVG Export Plug-In . SVG Version: 6.00 Build 0)  -->
<svg version="1.1" id="Layer_1" xmlns="http://www.w3.org/2000/svg" xmlns:xlink="http://www.w3.org/1999/xlink" x="0px" y="0px"
	 viewBox="0 0 16.1 30.1" style="enable-background:new 0 0 16.1 30.1;" xml:space="preserve">
<path d="M15.5,0l-3.9,0C7.3,0,4.5,2.9,4.5,7.4v3.4H0.6c-0.3,0-0.6,0.3-0.6,0.6v4.9C0,16.7,0.3,17,0.6,17h3.9v12.5
	c0,0.3,0.3,0.6,0.6,0.6h5.1c0.3,0,0.6-0.3,0.6-0.6V17h4.5c0.3,0,0.6-0.3,0.6-0.6l0-4.9c0-0.2-0.1-0.3-0.2-0.4
	c-0.1-0.1-0.3-0.2-0.4-0.2h-4.5V7.9c0-1.4,0.3-2.1,2.1-2.1l2.6,0c0.3,0,0.6-0.3,0.6-0.6V0.6C16.1,0.3,15.8,0,15.5,0z"/>
</svg>
