<?xml version="1.0" encoding="utf-8"?>
<!-- Generator: Adobe Illustrator 23.0.2, SVG Export Plug-In . SVG Version: 6.00 Build 0)  -->
<svg version="1.1" id="Layer_1" xmlns="http://www.w3.org/2000/svg" xmlns:xlink="http://www.w3.org/1999/xlink" x="0px" y="0px"
	 viewBox="0 0 15.4 15" style="enable-background:new 0 0 15.4 15;" xml:space="preserve">
<path d="M11.2,0H4.2C1.9,0,0,1.8,0,4.1v6.9C0,13.2,1.9,15,4.2,15h7.1c2.3,0,4.2-1.8,4.2-4.1V4.1C15.4,1.8,13.5,0,11.2,0z M7.7,11.6
	c-2.3,0-4.2-1.8-4.2-4.1c0-2.3,1.9-4.1,4.2-4.1s4.2,1.8,4.2,4.1C11.9,9.8,10,11.6,7.7,11.6z M12,4.4c-0.7,0-1.2-0.5-1.2-1.2
	s0.6-1.2,1.2-1.2c0.7,0,1.2,0.5,1.2,1.2S12.7,4.4,12,4.4z"/>
</svg>
