<?xml version="1.0" encoding="utf-8"?>
<!-- Generator: Adobe Illustrator 23.0.2, SVG Export Plug-In . SVG Version: 6.00 Build 0)  -->
<svg version="1.1" id="Layer_1" xmlns="http://www.w3.org/2000/svg" xmlns:xlink="http://www.w3.org/1999/xlink" x="0px" y="0px"
	 viewBox="0 0 30.8 29.4" style="enable-background:new 0 0 30.8 29.4;" xml:space="preserve">
<path d="M30.8,18v11.4h-6.6V18.8c0-2.7-1-4.5-3.3-4.5c-1.8,0-2.9,1.2-3.4,2.4c-0.2,0.4-0.2,1-0.2,1.6v11.1h-6.6c0,0,0.1-18,0-19.8
	h6.6v2.8c0,0,0,0,0,0.1h0v-0.1c0.9-1.3,2.4-3.3,5.9-3.3C27.5,9.1,30.8,11.9,30.8,18z M3.7,0C1.5,0,0,1.5,0,3.4
	c0,1.9,1.4,3.4,3.6,3.4h0c2.3,0,3.7-1.5,3.7-3.4C7.4,1.5,6,0,3.7,0z M0.4,29.4H7V9.6H0.4V29.4z"/>
</svg>
