<?xml version="1.0" encoding="utf-8"?>
<!-- Generator: Adobe Illustrator 22.1.0, SVG Export Plug-In . SVG Version: 6.00 Build 0)  -->
<svg version="1.1" id="junkx" xmlns="http://www.w3.org/2000/svg" xmlns:xlink="http://www.w3.org/1999/xlink" x="0px" y="0px"
	 viewBox="0 0 612 792" style="enable-background:new 0 0 612 792;" xml:space="preserve">
<style type="text/css">
	.x{fill:#3AB54B;}
	.j-top{fill:#3BB54B;}
	.junk{fill:#151B27;}
</style>
<g class="x">
	<path d="M365.8,0.4c1.5,0.4,3.1,0.8,4.6,1c11.3,2.1,21.8,6.2,32,11.3c9.1,4.6,17.9,9.7,26.1,15.8
		c5.8,4.4,11.7,8.7,17.2,13.5c6.4,5.5,12.5,11.4,18.4,17.4c3.8,3.8,7.2,8,10.4,12.3c4.5,5.9,8.6,11.9,12.9,18c1.2,1.6,2.1,3.4,3,5.3
		c1.6,3.3,3.1,6.7,4.6,10.1c2.6,5.9,4.7,11.9,4.9,18.4c0.1,4.1,0.1,8.5-1,12.4c-2.2,7.4-7.6,12.1-15.1,14.1
		c-9.2,2.5-18.3,1.3-27.3-0.9c-12.5-3.1-24-8.4-35.1-14.8c-9-5.2-17.6-11-25.8-17.4c-0.3-0.3-0.9-0.3-1.3-0.5
		c-1.8-1.7-3.6-3.3-5.4-5c-1.8-1.6-3.5-3.3-5.2-5c-0.3-0.2-0.6-0.3-0.9-0.5c-0.7-0.7-1.4-1.4-2-2.1c-0.4-0.3-0.8-0.6-1.3-0.9
		c0,0,0,0,0,0c-0.3-0.3-0.5-0.6-0.8-0.9c-0.6-0.5-1.2-1.1-1.9-1.6c-12.3-11.7-23-24.7-32-39.6c1.4,0,2.4,0,3.4,0
		c7.4,0,14.7,0,22.1,0c1.4,0,2,0.5,2.9,1.6c4.4,5.7,9,11.3,13.5,16.9c1.3,1.6,2.7,3.1,4.1,4.5c0.5,0.5,1.3,0.8,1.9,1.2l0,0
		c1.6,1.8,3.1,3.8,4.9,5.5c3.3,3,6.6,6,10.2,8.7c6.1,4.6,12.2,9.2,18.7,13.2c6,3.7,12.3,6.9,18.7,9.8c7.9,3.6,16.2,6,25,5.9
		c5.2-0.1,10.1-1.1,13.9-5.2c2.2-2.3,3.5-5.1,3.9-8.2c0.9-7.2-1-13.9-4.1-20.3c-1.1-2.4-2.1-4.9-3.5-7.1
		c-3.6-5.6-7.2-11.2-11.1-16.6c-3-4.2-6.4-8.1-10-11.8c-4.1-4.3-8.5-8.3-12.9-12.2c-3.1-2.8-6.3-5.6-9.7-8.1
		c-6.3-4.5-12.7-8.7-19.2-12.9c-6.6-4.2-13.8-7.5-21.2-9.9c-7.9-2.6-16-4.6-24.3-2.6c-5.4,1.3-9.2,4.4-11,9.9
		c-1.3,3.9-1.3,7.7-0.4,11.6c0.3,1.2,0.8,1.6,2,1.5c3.4-0.1,6.8,0,10.1,0c-5.4,6.1-10.9,12.3-16.6,18.7
		c-10.8-5.7-21.6-11.3-32.3-16.9c0-0.1,0.1-0.3,0.1-0.4c3.4,0,6.8,0,10.4,0c-0.4-2.7-1-5.2-1.1-7.7c-0.1-3.9-0.4-8,0.3-11.8
		c1.7-8.2,7-13.5,15-15.9c1.7-0.5,3.4-1,5.2-1.6C357.6,0.4,361.7,0.4,365.8,0.4z"/>
	<path d="M376.7,100.4c0.6,0.5,1.2,1.1,1.9,1.6c0,0,0,0,0,0c-0.2,0.1-0.4,0.2-0.6,0.3c0.3,0.2,0.7,0.3,1,0.5l0,0
		c0.2,0.6,0.2,1.3,0.5,1.8c2.2,3,4.4,5.9,6.6,8.9c1.6,2.2,3.2,4.3,4.9,6.5c-2.5,3-4.9,6.1-7.4,9.1c-2.5,2.9-5,5.8-7.6,8.6
		c-0.6,0.6-1.4,1.3-2.2,1.3c-9.6,0.1-19.1,0-28.7,0c-0.1,0-0.2-0.1-0.7-0.3c0.7-0.7,1.3-1.3,1.9-1.9c2.1-2.4,4.1-4.8,6.2-7.1
		c4.6-5.3,9.3-10.6,13.9-15.9c3.3-3.8,6.6-7.6,9.8-11.5C376.4,101.8,376.5,101,376.7,100.4z"/>
	<path d="M392.6,85.1c-0.9-2,0.9-2.9,1.8-4c2.3-2.9,4.9-5.5,7.3-8.3c3.3-3.7,6.4-7.5,9.7-11.3c0.4-0.4,1.1-0.7,1.6-0.7
		c9.6,0,19.3,0,28.9,0c0.1,0,0.2,0.1,0.5,0.3c-1.5,1.8-2.9,3.7-4.5,5.4c-2.2,2.6-4.6,5-6.8,7.6c-4.7,5.3-9.3,10.6-13.9,15.9
		c-1.1,1.3-2.4,2.4-3.2,3.8c-1,1.6-1.9,1.3-3.3,0.6C404.7,91.3,398.6,88.2,392.6,85.1C392.6,85.1,392.6,85.1,392.6,85.1z"/>
</g>
<g class="j-top">
	<path d="M62.4,61c0,5.5,0,10.8,0,16.3c-9.2,0-18.2,0-27.4,0c0-5.5,0-10.8,0-16.3C44.1,61,53.2,61,62.4,61z"/>
</g>
<g class="junk">
	<g>
		<path  d="M1.3,133.6c1.7-2.4,3.5-4.7,5-7.1c2.2-3.4,4.2-6.8,6-9.8c4.1,1,7.8,2.4,11.5,2.8c6.8,0.7,11.2-3,11.1-10.6
			c-0.1-8.7,0-17.4,0-26.1c0-0.7,0-1.4,0-2.2c9.2,0,18.3,0,27.5,0c0,0.5,0.1,1,0.1,1.6c0,9.7,0.1,19.4-0.1,29.1
			c-0.1,3.4-0.3,6.9-1.3,10.1c-1.9,6.5-6.1,11.6-12.3,14.5c-14.4,6.7-29,6-43.6,0.5c-1.3-0.5-2.6-1.2-3.9-1.8
			C1.3,134.1,1.3,133.8,1.3,133.6z"/>
		<path  d="M222.1,97.3c0-12.1,0-24.2,0-36.4c9.2,0,18.3,0,27.4,0c0,25.9,0,51.8,0,78c-0.6,0-1.3,0-2,0
			c-7.2,0-14.3-0.1-21.5,0.1c-2.1,0.1-3.6-0.6-4.9-2c-2-2.4-4-4.8-6.1-7.1c-4.7-5.4-9.4-10.8-14-16.3c-3.3-3.9-6.6-7.9-9.9-11.8
			c-0.6-0.7-1.2-1.3-2.1-2.3c0,13.4,0,26.3,0,39.5c-0.9,0-1.7,0-2.4,0c-7.6,0-15.2-0.1-22.8,0.1c-2,0-2.6-0.3-2.5-2.5
			c0.1-17.5,0.1-35,0.1-52.5c0-7.4-0.1-14.7,0-22.1c0-0.3,1-1,1.6-1c6.1-0.1,12.2,0,18.3,0c1,0,2,0.2,3,0c4.7-1,7.3,1.7,9.9,4.9
			c4.3,5.3,8.9,10.2,13.4,15.4c2.5,2.8,4.8,5.8,7.3,8.6c2.2,2.6,4.5,5.2,6.8,7.8C221.8,97.5,221.9,97.4,222.1,97.3z"/>
		<path d="M66.9,61c9.1,0,18.2,0,27.6,0c0,0.7,0,1.5,0,2.2c0,13.7-0.2,27.5,0.1,41.2c0.1,7.6,2.8,12.2,10.5,14.2
			c6.2,1.7,12.5,1.5,18.2-2.1c3.9-2.4,5.6-5.9,5.6-10.4c0-10.6,0-21.1,0-31.7c0-4.5,0-8.9,0-13.5c9.4,0,18.8,0,28.3,0
			c0,0.5,0.1,1,0.1,1.5c0,14.8,0.1,29.6-0.1,44.4c0,3.3-0.3,6.7-1.3,9.9c-1.7,5.4-4.8,10.1-9.3,13.7c-8.4,6.8-18.4,9-28.8,9.6
			c-9.7,0.6-19.4,0.1-28.7-3.2c-6.6-2.3-12.4-5.7-16.7-11.5c-3.3-4.5-5.5-9.3-5.6-14.8c-0.2-16.4-0.1-32.9-0.2-49.3
			C66.7,61.3,66.8,61.2,66.9,61z"/>
		<path d="M253.9,60.9c9.2,0,18.2,0,27.4,0c0,9.6,0,19.1,0,29.2c1.7-1.8,3-3.3,4.3-4.8c3.4-4.1,6.6-8.2,10-12.3
			c3.1-3.8,6.1-7.6,9.2-11.3c0.4-0.5,1.2-0.8,1.8-0.8c10.8,0,21.6,0,33.1,0c-11.8,12.4-23.3,24.3-34.8,36.3
			c12,13.8,24,27.7,36.3,41.8c-1,0-1.7,0-2.4,0c-9.2,0-18.4-0.2-27.6,0.1c-3.2,0.1-5-1.2-6.6-3.5c-4.3-6-8.7-11.9-13.1-17.8
			c-1.6-2.1-3.2-4.1-4.9-6.2c-1.6,1.7-3.2,3.2-4.6,4.9c-0.5,0.6-0.6,1.6-0.6,2.4c0,6.6,0,13.2,0,19.9c-9.2,0-18.3,0-27.5,0
			C253.9,112.9,253.9,87,253.9,60.9z"/>
		<path d="M391,120.1c-1.6-2.2-3.2-4.3-4.9-6.5c-2.2-3-4.5-5.9-6.6-8.9c-0.3-0.5-0.3-1.2-0.5-1.8c0,0,0.2,0,0.2,0l0.2,0
			c0,0,0,0,0,0c0.4,0.3,0.8,0.6,1.3,0.9c0.7,0.7,1.4,1.4,2,2.1c0.3,0.2,0.6,0.3,0.9,0.5c1.7,1.7,3.5,3.3,5.2,5
			c1.8,1.7,3.6,3.3,5.4,5C393.2,117.6,392.1,118.8,391,120.1z"/>
	</g>
</g>
</svg>
