<?xml version="1.0" encoding="utf-8"?>
<!-- Generator: Adobe Illustrator 23.0.2, SVG Export Plug-In . SVG Version: 6.00 Build 0)  -->
<svg version="1.1" id="Layer_1" xmlns="http://www.w3.org/2000/svg" xmlns:xlink="http://www.w3.org/1999/xlink" x="0px" y="0px"
	 viewBox="0 0 48 29" style="enable-background:new 0 0 48 29;" xml:space="preserve">
<style type="text/css">
	.st0{fill-rule:evenodd;clip-rule:evenodd;}
</style>
<path class="st0" d="M47,29H32.5c-0.6,0-1-0.4-1-1v-0.6c0-0.6,0.4-1,1-1H47c0.6,0,1,0.4,1,1V28C48,28.6,47.6,29,47,29z M47,15.8
	H18.8c-0.6,0-1-0.4-1-1v-0.6c0-0.6,0.4-1,1-1H47c0.6,0,1,0.4,1,1v0.6C48,15.4,47.6,15.8,47,15.8z M47,2.6H1c-0.6,0-1-0.4-1-1V1
	c0-0.6,0.4-1,1-1h46c0.6,0,1,0.4,1,1v0.6C48,2.2,47.6,2.6,47,2.6z"/>
</svg>
