<?xml version="1.0" encoding="utf-8"?>
<!-- Generator: Adobe Illustrator 23.0.2, SVG Export Plug-In . SVG Version: 6.00 Build 0)  -->
<svg version="1.1" id="Layer_1" xmlns="http://www.w3.org/2000/svg" xmlns:xlink="http://www.w3.org/1999/xlink" x="0px" y="0px"
	 viewBox="0 0 22 22" style="enable-background:new 0 0 22 22;" xml:space="preserve">
<g>
	<g>
		<path d="M17.4,13.7c-0.4-0.5-1-0.7-1.5-0.7c-0.6,0-1.1,0.2-1.5,0.7l-1.5,1.5c-0.1-0.1-0.3-0.1-0.4-0.2c-0.2-0.1-0.3-0.2-0.5-0.3
			c-1.4-0.9-2.7-2-3.9-3.5c-0.6-0.8-1-1.4-1.3-2.1c0.4-0.4,0.8-0.7,1.1-1.1C8,7.9,8.1,7.8,8.3,7.7c1-1,1-2.2,0-3.1L7,3.3
			C6.8,3.1,6.7,3,6.6,2.8C6.3,2.5,6,2.2,5.7,2c-0.4-0.4-1-0.7-1.5-0.7C3.6,1.3,3.1,1.5,2.6,2L1,3.6C0.4,4.1,0.1,4.9,0,5.7
			c-0.1,1,0.1,2.1,0.6,3.4c0.8,2,1.9,3.9,3.6,5.9c2,2.4,4.5,4.4,7.3,5.7c1.1,0.5,2.5,1.1,4.1,1.2c0.1,0,0.2,0,0.3,0
			c1.1,0,1.9-0.4,2.6-1.1c0,0,0,0,0,0c0.2-0.3,0.5-0.6,0.8-0.9c0.2-0.2,0.4-0.4,0.6-0.6c0.9-1,0.9-2.2,0-3.1L17.4,13.7z M19.2,18.6
			c-0.2,0.2-0.4,0.4-0.6,0.6c-0.3,0.3-0.6,0.6-0.9,0.9c-0.5,0.5-1.1,0.8-1.8,0.8c-0.1,0-0.1,0-0.2,0c-1.4-0.1-2.7-0.6-3.7-1.1
			c-2.7-1.3-5-3.1-6.9-5.4c-1.6-1.9-2.7-3.7-3.4-5.6c-0.4-1.2-0.6-2.1-0.5-3c0-0.6,0.3-1,0.7-1.4l1.6-1.6c0.2-0.2,0.5-0.4,0.8-0.4
			c0.3,0,0.5,0.1,0.8,0.4C5.2,3,5.5,3.3,5.8,3.6C5.9,3.7,6.1,3.9,6.2,4l1.3,1.3c0.5,0.5,0.5,1,0,1.6C7.4,7,7.2,7.1,7.1,7.3
			C6.7,7.7,6.3,8.1,5.9,8.4c0,0,0,0,0,0c-0.4,0.4-0.3,0.7-0.2,1c0,0,0,0,0,0C6,10.3,6.5,11,7.2,11.9c1.3,1.6,2.6,2.8,4.1,3.8
			c0.2,0.1,0.4,0.2,0.6,0.3c0.2,0.1,0.3,0.2,0.5,0.3c0,0,0,0,0,0c0.1,0.1,0.3,0.1,0.4,0.1c0.4,0,0.6-0.2,0.7-0.3l1.6-1.6
			c0.2-0.2,0.5-0.4,0.8-0.4c0.3,0,0.6,0.2,0.7,0.4l2.6,2.6C19.8,17.7,19.5,18.3,19.2,18.6z M15.2,6.8c0.9,0.9,1.5,2,1.7,3.3
			c0,0.3,0.3,0.5,0.5,0.5c0,0,0.1,0,0.1,0c0.3-0.1,0.5-0.3,0.5-0.6C17.7,8.4,17,7.1,16,6c-1.1-1.1-2.4-1.8-3.9-2
			c-0.3,0-0.6,0.2-0.6,0.5c0,0.3,0.2,0.6,0.5,0.6C13.1,5.3,14.3,5.9,15.2,6.8z M18.7,3.3c-1.8-1.8-4-2.9-6.4-3.3
			C12,0,11.7,0.2,11.6,0.5c0,0.3,0.2,0.6,0.5,0.6c2.2,0.4,4.2,1.4,5.8,3c1.6,1.6,2.6,3.6,3,5.8c0,0.3,0.3,0.5,0.5,0.5
			c0,0,0.1,0,0.1,0c0.3,0,0.5-0.3,0.5-0.6C21.6,7.3,20.4,5.1,18.7,3.3z"/>
	</g>
</g>
</svg>
