<?xml version="1.0" encoding="utf-8"?>
<!-- Generator: Adobe Illustrator 23.0.2, SVG Export Plug-In . SVG Version: 6.00 Build 0)  -->
<svg version="1.1" id="Layer_1" xmlns="http://www.w3.org/2000/svg" xmlns:xlink="http://www.w3.org/1999/xlink" x="0px" y="0px"
	 viewBox="0 0 39.7 25.9" style="enable-background:new 0 0 39.7 25.9;" xml:space="preserve">
<path d="M17.5,10.3c0,3.6-1.4,6.8-4.1,9.7c-2.7,2.9-6.3,4.8-10.6,5.9c-1.1,0.1-1.7-0.2-1.8-1.1c0.1-0.8,0.4-1.3,1-1.4
	c3.8-1.1,5.7-2.8,5.7-4.9c0-0.4-0.1-0.8-0.2-1.1v-0.1c-2.2-0.2-4-1.2-5.4-2.8C0.7,12.7,0,10.8,0,8.6c0-2.4,0.9-4.4,2.6-6.1
	C4.3,0.8,6.3,0,8.6,0c2.3,0,4.2,0.7,5.9,2.2c1.6,1.5,2.5,3.3,2.8,5.5l0,0C17.5,8.6,17.5,9.4,17.5,10.3L17.5,10.3z M39.7,10.3
	c0,3.6-1.4,6.8-4.1,9.7c-2.7,2.9-6.3,4.8-10.6,5.9c-1.1,0.1-1.7-0.2-1.8-1.1c0-0.8,0.3-1.3,1-1.4c3.8-1.1,5.7-2.8,5.7-4.9
	c0-0.4-0.1-0.8-0.2-1.1l-0.1-0.1c-2.1-0.2-3.9-1.2-5.3-2.8c-1.4-1.6-2.2-3.6-2.2-5.7c0-2.4,0.8-4.4,2.5-6.1C26.3,0.8,28.4,0,30.8,0
	c2.2,0,4.2,0.7,5.8,2.2c1.6,1.5,2.6,3.3,2.8,5.5l0,0C39.6,8.6,39.7,9.4,39.7,10.3L39.7,10.3z"/>
</svg>
