<?xml version="1.0" encoding="utf-8"?>
<!-- Generator: Adobe Illustrator 23.0.2, SVG Export Plug-In . SVG Version: 6.00 Build 0)  -->
<svg version="1.1" id="Layer_1" xmlns="http://www.w3.org/2000/svg" xmlns:xlink="http://www.w3.org/1999/xlink" x="0px" y="0px"
	 viewBox="0 0 37.1 30.1" style="enable-background:new 0 0 37.1 30.1;" xml:space="preserve">
<path d="M37.1,3.6c-1.4,0.6-2.8,1-4.4,1.2c1.6-0.9,2.8-2.4,3.3-4.2c-1.5,0.9-3.1,1.5-4.8,1.8C29.8,0.9,27.8,0,25.7,0
	c-4.2,0-7.6,3.4-7.6,7.6c0,0.6,0.1,1.2,0.2,1.7C11.9,9,6.3,6,2.6,1.4c-0.7,1.1-1,2.4-1,3.8c0,2.6,1.4,5,3.4,6.3
	c-1.2,0-2.4-0.4-3.4-0.9c0,0,0,0.1,0,0.1c0,3.7,2.6,6.7,6.1,7.5c-0.6,0.2-1.3,0.2-2,0.2c-0.5,0-1,0-1.4-0.1c1,3,3.8,5.2,7.1,5.3
	c-2.6,2-5.9,3.2-9.4,3.2c-0.6,0-1.2,0-1.8-0.1c3.4,2.2,7.4,3.4,11.7,3.4c14,0,21.6-11.6,21.6-21.6c0-0.3,0-0.7,0-1
	C34.8,6.4,36,5.1,37.1,3.6z"/>
</svg>
